# xmcd
#
# Track frame offsets:
# 150
# 10608
# 22121
# 34826
# 45922
# 57268
# 67878
# 79070
# 90531
# 99933
# 111250
# 122661
# 132402
# 141245
# 151675
# 162743
# 172206
# 184726
# 196517
# 208543
#
# Disc length: 2923 seconds
#
#
# Revision: 0
# Processed by: cddbd v1.5.1PL2 Copyright (c) Steve Scherf et al.
# Submitted via: FreeRIP 2.931 
#
DISCID=050b6914
DTITLE=Patsy Cline - Crazy Dreams
DYEAR=1999
DGENRE=Country
TTITLE0=Walking dreams
TTITLE1=The hard you break May be your own
TTITLE2=Just a closer walk with thee
TTITLE3=Don't ever leave me again
TTITLE4=Dear god
TTITLE5=That wonderful someone
TTITLE6=Hidin'out
TTITLE7=Crazy Dreams
TTITLE8=Come on in
TTITLE9=Hungry for your love
TTITLE10=Cry not for me
TTITLE11=I'm blue again
TTITLE12=Ain't no wheels
TTITLE13=He'll do for you
TTITLE14=I can't forget
TTITLE15=Crazy
TTITLE16=Sweet dreams
TTITLE17=Back in baby's arms
TTITLE18=In care of the blues
TTITLE19=Stop look and listen
EXTD=20 Country greates
EXTT0=
EXTT1=
EXTT2=
EXTT3=
EXTT4=
EXTT5=
EXTT6=
EXTT7=
EXTT8=
EXTT9=
EXTT10=
EXTT11=
EXTT12=
EXTT13=
EXTT14=
EXTT15=
EXTT16=
EXTT17=
EXTT18=
EXTT19=
PLAYORDER=
